<svg width="33" height="33" viewBox="0 0 33 33" fill="none" xmlns="http://www.w3.org/2000/svg">
<g filter="url(#filter0_d_407_3454)">
<path d="M21.7526 10.0938H11.7526C10.8321 10.0938 10.0859 10.8399 10.0859 11.7604V21.7604C10.0859 22.6809 10.8321 23.4271 11.7526 23.4271H21.7526C22.6731 23.4271 23.4193 22.6809 23.4193 21.7604V11.7604C23.4193 10.8399 22.6731 10.0938 21.7526 10.0938Z" stroke="#B76DF0" stroke-width="1.66667" stroke-linecap="round" stroke-linejoin="round"/>
<path d="M18.4167 14.2598H15.0833C14.6231 14.2598 14.25 14.6329 14.25 15.0931V18.4264C14.25 18.8867 14.6231 19.2598 15.0833 19.2598H18.4167C18.8769 19.2598 19.25 18.8867 19.25 18.4264V15.0931C19.25 14.6329 18.8769 14.2598 18.4167 14.2598Z" stroke="#B76DF0" stroke-width="1.66667" stroke-linecap="round" stroke-linejoin="round"/>
<path d="M19.25 8.42578V10.0924" stroke="#B76DF0" stroke-width="1.66667" stroke-linecap="round" stroke-linejoin="round"/>
<path d="M19.25 23.4258V25.0924" stroke="#B76DF0" stroke-width="1.66667" stroke-linecap="round" stroke-linejoin="round"/>
<path d="M8.41406 19.2598H10.0807" stroke="#B76DF0" stroke-width="1.66667" stroke-linecap="round" stroke-linejoin="round"/>
<path d="M8.41406 14.2598H10.0807" stroke="#B76DF0" stroke-width="1.66667" stroke-linecap="round" stroke-linejoin="round"/>
<path d="M23.4141 19.2598H25.0807" stroke="#B76DF0" stroke-width="1.66667" stroke-linecap="round" stroke-linejoin="round"/>
<path d="M23.4141 14.2598H25.0807" stroke="#B76DF0" stroke-width="1.66667" stroke-linecap="round" stroke-linejoin="round"/>
<path d="M14.25 8.42578V10.0924" stroke="#B76DF0" stroke-width="1.66667" stroke-linecap="round" stroke-linejoin="round"/>
<path d="M14.25 23.4258V25.0924" stroke="#B76DF0" stroke-width="1.66667" stroke-linecap="round" stroke-linejoin="round"/>
</g>
<defs>
<filter id="filter0_d_407_3454" x="-0.25" y="-0.240234" width="34" height="34" filterUnits="userSpaceOnUse" color-interpolation-filters="sRGB">
<feFlood flood-opacity="0" result="BackgroundImageFix"/>
<feColorMatrix in="SourceAlpha" type="matrix" values="0 0 0 0 0 0 0 0 0 0 0 0 0 0 0 0 0 0 127 0" result="hardAlpha"/>
<feOffset/>
<feGaussianBlur stdDeviation="3.5"/>
<feComposite in2="hardAlpha" operator="out"/>
<feColorMatrix type="matrix" values="0 0 0 0 0.717647 0 0 0 0 0.427451 0 0 0 0 0.941176 0 0 0 0.7 0"/>
<feBlend mode="normal" in2="BackgroundImageFix" result="effect1_dropShadow_407_3454"/>
<feBlend mode="normal" in="SourceGraphic" in2="effect1_dropShadow_407_3454" result="shape"/>
</filter>
</defs>
</svg>
