<svg width="32" height="33" viewBox="0 0 32 33" fill="none" xmlns="http://www.w3.org/2000/svg">
<g filter="url(#filter0_d_407_3473)">
<path d="M15.75 13.2969C19.8921 13.2969 23.25 12.1776 23.25 10.7969C23.25 9.41616 19.8921 8.29688 15.75 8.29688C11.6079 8.29688 8.25 9.41616 8.25 10.7969C8.25 12.1776 11.6079 13.2969 15.75 13.2969Z" stroke="#B76DF0" stroke-width="1.66667" stroke-linecap="round" stroke-linejoin="round"/>
<path d="M8.25 10.7969V22.4635C8.25 23.1266 9.04018 23.7625 10.4467 24.2313C11.8532 24.7001 13.7609 24.9635 15.75 24.9635C17.7391 24.9635 19.6468 24.7001 21.0533 24.2313C22.4598 23.7625 23.25 23.1266 23.25 22.4635V10.7969" stroke="#B76DF0" stroke-width="1.66667" stroke-linecap="round" stroke-linejoin="round"/>
<path d="M8.25 16.6309C8.25 17.2939 9.04018 17.9298 10.4467 18.3986C11.8532 18.8675 13.7609 19.1309 15.75 19.1309C17.7391 19.1309 19.6468 18.8675 21.0533 18.3986C22.4598 17.9298 23.25 17.2939 23.25 16.6309" stroke="#B76DF0" stroke-width="1.66667" stroke-linecap="round" stroke-linejoin="round"/>
</g>
<defs>
<filter id="filter0_d_407_3473" x="-1.25" y="-0.369141" width="34" height="34" filterUnits="userSpaceOnUse" color-interpolation-filters="sRGB">
<feFlood flood-opacity="0" result="BackgroundImageFix"/>
<feColorMatrix in="SourceAlpha" type="matrix" values="0 0 0 0 0 0 0 0 0 0 0 0 0 0 0 0 0 0 127 0" result="hardAlpha"/>
<feOffset/>
<feGaussianBlur stdDeviation="3.5"/>
<feComposite in2="hardAlpha" operator="out"/>
<feColorMatrix type="matrix" values="0 0 0 0 0.717647 0 0 0 0 0.427451 0 0 0 0 0.941176 0 0 0 0.7 0"/>
<feBlend mode="normal" in2="BackgroundImageFix" result="effect1_dropShadow_407_3473"/>
<feBlend mode="normal" in="SourceGraphic" in2="effect1_dropShadow_407_3473" result="shape"/>
</filter>
</defs>
</svg>
