<svg width="33" height="33" viewBox="0 0 33 33" fill="none" xmlns="http://www.w3.org/2000/svg">
<g filter="url(#filter0_d_407_3466)">
<path d="M24.2526 20.0312H20.9193C20.459 20.0312 20.0859 20.4043 20.0859 20.8646V24.1979C20.0859 24.6582 20.459 25.0312 20.9193 25.0312H24.2526C24.7128 25.0312 25.0859 24.6582 25.0859 24.1979V20.8646C25.0859 20.4043 24.7128 20.0312 24.2526 20.0312Z" stroke="#B76DF0" stroke-width="1.66667" stroke-linecap="round" stroke-linejoin="round"/>
<path d="M12.5807 20.0312H9.2474C8.78716 20.0312 8.41406 20.4043 8.41406 20.8646V24.1979C8.41406 24.6582 8.78716 25.0312 9.2474 25.0312H12.5807C13.041 25.0312 13.4141 24.6582 13.4141 24.1979V20.8646C13.4141 20.4043 13.041 20.0312 12.5807 20.0312Z" stroke="#B76DF0" stroke-width="1.66667" stroke-linecap="round" stroke-linejoin="round"/>
<path d="M18.4167 8.36719H15.0833C14.6231 8.36719 14.25 8.74028 14.25 9.20052V12.5339C14.25 12.9941 14.6231 13.3672 15.0833 13.3672H18.4167C18.8769 13.3672 19.25 12.9941 19.25 12.5339V9.20052C19.25 8.74028 18.8769 8.36719 18.4167 8.36719Z" stroke="#B76DF0" stroke-width="1.66667" stroke-linecap="round" stroke-linejoin="round"/>
<path d="M10.9141 20.0326V17.5326C10.9141 17.3115 11.0019 17.0996 11.1581 16.9433C11.3144 16.787 11.5264 16.6992 11.7474 16.6992H21.7474C21.9684 16.6992 22.1804 16.787 22.3367 16.9433C22.4929 17.0996 22.5807 17.3115 22.5807 17.5326V20.0326" stroke="#B76DF0" stroke-width="1.66667" stroke-linecap="round" stroke-linejoin="round"/>
<path d="M16.75 16.7005V13.3672" stroke="#B76DF0" stroke-width="1.66667" stroke-linecap="round" stroke-linejoin="round"/>
</g>
<defs>
<filter id="filter0_d_407_3466" x="-0.25" y="-0.300781" width="34" height="34" filterUnits="userSpaceOnUse" color-interpolation-filters="sRGB">
<feFlood flood-opacity="0" result="BackgroundImageFix"/>
<feColorMatrix in="SourceAlpha" type="matrix" values="0 0 0 0 0 0 0 0 0 0 0 0 0 0 0 0 0 0 127 0" result="hardAlpha"/>
<feOffset/>
<feGaussianBlur stdDeviation="3.5"/>
<feComposite in2="hardAlpha" operator="out"/>
<feColorMatrix type="matrix" values="0 0 0 0 0.717647 0 0 0 0 0.427451 0 0 0 0 0.941176 0 0 0 0.7 0"/>
<feBlend mode="normal" in2="BackgroundImageFix" result="effect1_dropShadow_407_3466"/>
<feBlend mode="normal" in="SourceGraphic" in2="effect1_dropShadow_407_3466" result="shape"/>
</filter>
</defs>
</svg>
