<svg width="25" height="25" viewBox="0 0 25 25" fill="none" xmlns="http://www.w3.org/2000/svg">
<path d="M6.75 11.0391H10.75" stroke="#1D90F0" stroke-width="2" stroke-linecap="round" stroke-linejoin="round"/>
<path d="M8.75 9.03906V13.0391" stroke="#1D90F0" stroke-width="2" stroke-linecap="round" stroke-linejoin="round"/>
<path d="M15.75 12.0391H15.76" stroke="#1D90F0" stroke-width="2" stroke-linecap="round" stroke-linejoin="round"/>
<path d="M18.75 10.0391H18.76" stroke="#1D90F0" stroke-width="2" stroke-linecap="round" stroke-linejoin="round"/>
<path d="M18.07 5.03906H7.43C6.44028 5.03929 5.48579 5.40644 4.75103 6.06953C4.01628 6.73261 3.55345 7.64455 3.452 8.62906C3.446 8.68106 3.442 8.73006 3.435 8.78106C3.354 9.45506 2.75 14.4951 2.75 16.0391C2.75 16.8347 3.06607 17.5978 3.62868 18.1604C4.19129 18.723 4.95435 19.0391 5.75 19.0391C6.75 19.0391 7.25 18.5391 7.75 18.0391L9.164 16.6251C9.53899 16.25 10.0476 16.0392 10.578 16.0391H14.922C15.4524 16.0392 15.961 16.25 16.336 16.6251L17.75 18.0391C18.25 18.5391 18.75 19.0391 19.75 19.0391C20.5456 19.0391 21.3087 18.723 21.8713 18.1604C22.4339 17.5978 22.75 16.8347 22.75 16.0391C22.75 14.4941 22.146 9.45506 22.065 8.78106C22.058 8.73106 22.054 8.68106 22.048 8.63006C21.9468 7.64537 21.4841 6.73319 20.7493 6.0699C20.0145 5.4066 19.0599 5.03932 18.07 5.03906Z" stroke="#1D90F0" stroke-width="2" stroke-linecap="round" stroke-linejoin="round"/>
</svg>
