<svg width="33" height="33" viewBox="0 0 33 33" fill="none" xmlns="http://www.w3.org/2000/svg">
<g filter="url(#filter0_d_407_3489)">
<path d="M22.9482 12.9899C22.9074 13.2583 22.9974 13.5299 23.1891 13.7216L24.4957 15.0283C24.8874 15.4199 25.0841 15.9341 25.0841 16.4483C25.0841 16.9624 24.8882 17.4758 24.4957 17.8683L23.1532 19.2108C23.063 19.3009 22.9529 19.3687 22.8318 19.4086C22.7107 19.4486 22.5819 19.4596 22.4557 19.4408C22.0641 19.3824 21.7874 19.0408 21.6491 18.6699C21.5277 18.3423 21.3259 18.0504 21.0622 17.8211C20.7985 17.5918 20.4814 17.4325 20.14 17.3578C19.7986 17.2832 19.444 17.2956 19.1086 17.3938C18.7733 17.4921 18.468 17.6731 18.2209 17.9202C17.9738 18.1672 17.7929 18.4725 17.6946 18.8078C17.5963 19.1432 17.584 19.4978 17.6586 19.8392C17.7333 20.1806 17.8926 20.4977 18.1219 20.7614C18.3511 21.0251 18.6431 21.2269 18.9707 21.3483C19.3424 21.4866 19.6832 21.7624 19.7416 22.1549C19.7604 22.2811 19.7494 22.4099 19.7095 22.531C19.6695 22.6522 19.6018 22.7623 19.5116 22.8524L18.1699 24.1941C17.9836 24.3811 17.7621 24.5294 17.5183 24.6305C17.2744 24.7316 17.013 24.7835 16.7491 24.7833C16.4853 24.7836 16.224 24.7318 15.9803 24.6308C15.7366 24.5299 15.5153 24.3817 15.3291 24.1949L14.0224 22.8883C13.928 22.7937 13.8126 22.7225 13.6857 22.6806C13.5588 22.6386 13.4238 22.627 13.2916 22.6466C12.8807 22.7083 12.5916 23.0666 12.4416 23.4533C12.3158 23.776 12.1116 24.0623 11.8474 24.2862C11.5832 24.5102 11.2674 24.6647 10.9284 24.7359C10.5895 24.807 10.2381 24.7926 9.90616 24.6938C9.57421 24.595 9.27211 24.415 9.02721 24.1701C8.78231 23.9252 8.60233 23.6231 8.50355 23.2912C8.40477 22.9592 8.39031 22.6079 8.46147 22.2689C8.53263 21.93 8.68718 21.6141 8.91112 21.3499C9.13507 21.0857 9.42135 20.8815 9.74406 20.7558C10.1307 20.6058 10.4891 20.3166 10.5499 19.9058C10.5697 19.7736 10.5582 19.6387 10.5163 19.5117C10.4745 19.3848 10.4035 19.2695 10.3091 19.1749L9.0024 17.8683C8.8156 17.682 8.66747 17.4607 8.5665 17.217C8.46553 16.9733 8.41373 16.7121 8.41406 16.4483C8.41406 15.9341 8.61073 15.4199 9.0024 15.0283L10.2741 13.7566C10.4741 13.5566 10.7582 13.4624 11.0382 13.5041C11.4674 13.5683 11.7691 13.9441 11.9324 14.3458C12.0621 14.6639 12.2686 14.945 12.5332 15.164C12.7979 15.3831 13.1127 15.5333 13.4495 15.6012C13.7862 15.6691 14.1346 15.6527 14.4635 15.5535C14.7924 15.4542 15.0917 15.2751 15.3346 15.0321C15.5775 14.7892 15.7566 14.49 15.8559 14.1611C15.9552 13.8321 15.9716 13.4838 15.9036 13.147C15.8357 12.8102 15.6855 12.4955 15.4665 12.2308C15.2475 11.9661 14.9664 11.7597 14.6482 11.6299C14.2466 11.4666 13.8707 11.1649 13.8066 10.7358C13.7649 10.4558 13.8582 10.1724 14.0591 9.97162L15.3299 8.70078C15.5161 8.51424 15.7373 8.36631 15.9809 8.26549C16.2244 8.16467 16.4855 8.11295 16.7491 8.11328C17.2632 8.11328 17.7774 8.30995 18.1691 8.70162L19.4757 10.0083C19.6674 10.1999 19.9391 10.2899 20.2066 10.2499C20.6174 10.1883 20.9066 9.82995 21.0566 9.44328C21.1823 9.12057 21.3865 8.83429 21.6507 8.61034C21.9149 8.3864 22.2308 8.23185 22.5697 8.16069C22.9087 8.08952 23.26 8.10399 23.592 8.20277C23.9239 8.30155 24.226 8.48153 24.4709 8.72643C24.7158 8.97133 24.8958 9.27343 24.9946 9.60538C25.0934 9.93734 25.1078 10.2887 25.0367 10.6276C24.9655 10.9666 24.8109 11.2825 24.587 11.5467C24.3631 11.8109 24.0768 12.0151 23.7541 12.1408C23.3674 12.2908 23.0091 12.5791 22.9482 12.9899Z" stroke="#B76DF0" stroke-width="1.66667" stroke-linecap="round" stroke-linejoin="round"/>
</g>
<defs>
<filter id="filter0_d_407_3489" x="-0.25" y="-0.550781" width="34" height="34" filterUnits="userSpaceOnUse" color-interpolation-filters="sRGB">
<feFlood flood-opacity="0" result="BackgroundImageFix"/>
<feColorMatrix in="SourceAlpha" type="matrix" values="0 0 0 0 0 0 0 0 0 0 0 0 0 0 0 0 0 0 127 0" result="hardAlpha"/>
<feOffset/>
<feGaussianBlur stdDeviation="3.5"/>
<feComposite in2="hardAlpha" operator="out"/>
<feColorMatrix type="matrix" values="0 0 0 0 0.717647 0 0 0 0 0.427451 0 0 0 0 0.941176 0 0 0 0.7 0"/>
<feBlend mode="normal" in2="BackgroundImageFix" result="effect1_dropShadow_407_3489"/>
<feBlend mode="normal" in="SourceGraphic" in2="effect1_dropShadow_407_3489" result="shape"/>
</filter>
</defs>
</svg>
