<svg width="32" height="33" viewBox="0 0 32 33" fill="none" xmlns="http://www.w3.org/2000/svg">
<g filter="url(#filter0_d_407_3478)">
<path d="M15.75 13.2383C19.8921 13.2383 23.25 12.119 23.25 10.7383C23.25 9.35757 19.8921 8.23828 15.75 8.23828C11.6079 8.23828 8.25 9.35757 8.25 10.7383C8.25 12.119 11.6079 13.2383 15.75 13.2383Z" stroke="#B76DF0" stroke-width="1.66667" stroke-linecap="round" stroke-linejoin="round"/>
<path d="M8.25 10.7383V22.4049C8.25 23.068 9.04018 23.7039 10.4467 24.1727C11.8532 24.6416 13.7609 24.9049 15.75 24.9049C17.7391 24.9049 19.6468 24.6416 21.0533 24.1727C22.4598 23.7039 23.25 23.068 23.25 22.4049V10.7383" stroke="#B76DF0" stroke-width="1.66667" stroke-linecap="round" stroke-linejoin="round"/>
<path d="M8.25 16.5703C8.25 17.2334 9.04018 17.8692 10.4467 18.3381C11.8532 18.8069 13.7609 19.0703 15.75 19.0703C17.7391 19.0703 19.6468 18.8069 21.0533 18.3381C22.4598 17.8692 23.25 17.2334 23.25 16.5703" stroke="#B76DF0" stroke-width="1.66667" stroke-linecap="round" stroke-linejoin="round"/>
</g>
<defs>
<filter id="filter0_d_407_3478" x="-1.25" y="-0.429688" width="34" height="34" filterUnits="userSpaceOnUse" color-interpolation-filters="sRGB">
<feFlood flood-opacity="0" result="BackgroundImageFix"/>
<feColorMatrix in="SourceAlpha" type="matrix" values="0 0 0 0 0 0 0 0 0 0 0 0 0 0 0 0 0 0 127 0" result="hardAlpha"/>
<feOffset/>
<feGaussianBlur stdDeviation="3.5"/>
<feComposite in2="hardAlpha" operator="out"/>
<feColorMatrix type="matrix" values="0 0 0 0 0.717647 0 0 0 0 0.427451 0 0 0 0 0.941176 0 0 0 0.7 0"/>
<feBlend mode="normal" in2="BackgroundImageFix" result="effect1_dropShadow_407_3478"/>
<feBlend mode="normal" in="SourceGraphic" in2="effect1_dropShadow_407_3478" result="shape"/>
</filter>
</defs>
</svg>
