<svg width="19" height="20" viewBox="0 0 19 20" fill="none" xmlns="http://www.w3.org/2000/svg">
<g clip-path="url(#clip0_24_3676)">
<g clip-path="url(#clip1_24_3676)">
<g clip-path="url(#clip2_24_3676)">
<path d="M1.27921 3.13379H17.9674C18.5346 3.13379 18.9966 3.59575 18.9966 4.163V15.1447C18.9966 15.7119 18.5346 16.1739 17.9674 16.1739H1.27921C0.711957 16.1773 0.25 15.7153 0.25 15.1481V4.163C0.25 3.59575 0.711957 3.13379 1.27921 3.13379Z" fill="#B22234"/>
<path d="M0.256793 4.06152H18.9966C19 4.09549 19.0034 4.12946 19.0034 4.16682V5.16546H0.25V4.16343C0.25 4.12946 0.253397 4.09549 0.256793 4.06152ZM19 6.07919V7.17973H0.25V6.07919H19ZM19 8.09685V9.19739H0.25V8.09685H19ZM19 10.1145V11.2151H0.25V10.1145H19ZM19 12.1322V13.2327H0.25V12.1322H19ZM19 14.1498V15.1451C19 15.1791 18.9966 15.2164 18.9932 15.2504H0.256793C0.253397 15.2198 0.25 15.1824 0.25 15.1485V14.1532H19V14.1498Z" fill="white"/>
<path d="M7.31522 3.13379V10.1582H0.25V4.163C0.25 3.59575 0.711957 3.13379 1.27921 3.13379H7.31522Z" fill="#3C3B6E"/>
<path d="M0.665082 4.10547L0.899457 4.83577L0.28125 4.384H1.04891L0.42731 4.83577L0.665082 4.10547Z" fill="white"/>
<path d="M0.665082 5.51855L0.899457 6.24885L0.28125 5.79709H1.04891L0.42731 6.24885L0.665082 5.51855Z" fill="white"/>
<path d="M0.665082 6.93164L0.899457 7.66194L0.28125 7.21017H1.04891L0.42731 7.66194L0.665082 6.93164Z" fill="white"/>
<path d="M0.665082 8.34473L0.899457 9.07503L0.28125 8.62326H1.04891L0.42731 9.07503L0.665082 8.34473Z" fill="white"/>
<path d="M1.49711 3.39844L1.73488 4.12874L1.11328 3.67697H1.88434L1.25934 4.12874L1.49711 3.39844Z" fill="white"/>
<path d="M1.49711 4.81152L1.73488 5.54182L1.11328 5.09006H1.88434L1.25934 5.54182L1.49711 4.81152Z" fill="white"/>
<path d="M1.49711 6.22461L1.73488 6.95491L1.11328 6.50314H1.88434L1.25934 6.95491L1.49711 6.22461Z" fill="white"/>
<path d="M1.49711 7.6377L1.73488 8.36799L1.11328 7.91623H1.88434L1.25934 8.36799L1.49711 7.6377Z" fill="white"/>
<path d="M1.49711 9.05078L1.73488 9.78108L1.11328 9.32931H1.88434L1.25934 9.78108L1.49711 9.05078Z" fill="white"/>
<path d="M2.32914 4.10547L2.56692 4.83577L1.94531 4.384H2.71298L2.09137 4.83577L2.32914 4.10547Z" fill="white"/>
<path d="M2.32914 5.51855L2.56692 6.24885L1.94531 5.79709H2.71298L2.09137 6.24885L2.32914 5.51855Z" fill="white"/>
<path d="M2.32914 6.93164L2.56692 7.66194L1.94531 7.21017H2.71298L2.09137 7.66194L2.32914 6.93164Z" fill="white"/>
<path d="M2.32914 8.34473L2.56692 9.07503L1.94531 8.62326H2.71298L2.09137 9.07503L2.32914 8.34473Z" fill="white"/>
<path d="M3.16118 3.39844L3.39555 4.12874L2.77734 3.67697H3.54501L2.9234 4.12874L3.16118 3.39844Z" fill="white"/>
<path d="M3.16118 4.81152L3.39555 5.54182L2.77734 5.09006H3.54501L2.9234 5.54182L3.16118 4.81152Z" fill="white"/>
<path d="M3.16118 6.22461L3.39555 6.95491L2.77734 6.50314H3.54501L2.9234 6.95491L3.16118 6.22461Z" fill="white"/>
<path d="M3.16118 7.6377L3.39555 8.36799L2.77734 7.91623H3.54501L2.9234 8.36799L3.16118 7.6377Z" fill="white"/>
<path d="M3.16118 9.05078L3.39555 9.78108L2.77734 9.32931H3.54501L2.9234 9.78108L3.16118 9.05078Z" fill="white"/>
<path d="M3.9893 4.10547L4.22707 4.83577L3.60547 4.384H4.37313L3.75153 4.83577L3.9893 4.10547Z" fill="white"/>
<path d="M3.9893 5.51855L4.22707 6.24885L3.60547 5.79709H4.37313L3.75153 6.24885L3.9893 5.51855Z" fill="white"/>
<path d="M3.9893 6.93164L4.22707 7.66194L3.60547 7.21017H4.37313L3.75153 7.66194L3.9893 6.93164Z" fill="white"/>
<path d="M3.9893 8.34473L4.22707 9.07503L3.60547 8.62326H4.37313L3.75153 9.07503L3.9893 8.34473Z" fill="white"/>
<path d="M4.82133 3.39844L5.0591 4.12874L4.4375 3.67697H5.20516L4.58356 4.12874L4.82133 3.39844Z" fill="white"/>
<path d="M4.82133 4.81152L5.0591 5.54182L4.4375 5.09006H5.20516L4.58356 5.54182L4.82133 4.81152Z" fill="white"/>
<path d="M4.82133 6.22461L5.0591 6.95491L4.4375 6.50314H5.20516L4.58356 6.95491L4.82133 6.22461Z" fill="white"/>
<path d="M4.82133 7.6377L5.0591 8.36799L4.4375 7.91623H5.20516L4.58356 8.36799L4.82133 7.6377Z" fill="white"/>
<path d="M4.82133 9.05078L5.0591 9.78108L4.4375 9.32931H5.20516L4.58356 9.78108L4.82133 9.05078Z" fill="white"/>
<path d="M5.64946 4.10547L5.88723 4.83577L5.26562 4.384H6.03329L5.41508 4.83577L5.64946 4.10547Z" fill="white"/>
<path d="M5.64946 5.51855L5.88723 6.24885L5.26562 5.79709H6.03329L5.41508 6.24885L5.64946 5.51855Z" fill="white"/>
<path d="M5.64946 6.93164L5.88723 7.66194L5.26562 7.21017H6.03329L5.41508 7.66194L5.64946 6.93164Z" fill="white"/>
<path d="M5.64946 8.34473L5.88723 9.07503L5.26562 8.62326H6.03329L5.41508 9.07503L5.64946 8.34473Z" fill="white"/>
<path d="M6.48539 3.39844L6.72317 4.12874L6.10156 3.67697H6.86923L6.24762 4.12874L6.48539 3.39844Z" fill="white"/>
<path d="M6.48539 4.81152L6.72317 5.54182L6.10156 5.09006H6.86923L6.24762 5.54182L6.48539 4.81152Z" fill="white"/>
<path d="M6.48539 6.22461L6.72317 6.95491L6.10156 6.50314H6.86923L6.24762 6.95491L6.48539 6.22461Z" fill="white"/>
<path d="M6.48539 7.6377L6.72317 8.36799L6.10156 7.91623H6.86923L6.24762 8.36799L6.48539 7.6377Z" fill="white"/>
<path d="M6.48539 9.05078L6.72317 9.78108L6.10156 9.32931H6.86923L6.24762 9.78108L6.48539 9.05078Z" fill="white"/>
</g>
</g>
</g>
<defs>
<clipPath id="clip0_24_3676">
<rect width="18.75" height="18.75" fill="white" transform="translate(0.25 0.280273)"/>
</clipPath>
<clipPath id="clip1_24_3676">
<rect width="18.75" height="18.75" fill="white" transform="translate(0.25 0.280273)"/>
</clipPath>
<clipPath id="clip2_24_3676">
<rect width="18.75" height="13.0435" fill="white" transform="translate(0.25 3.13379)"/>
</clipPath>
</defs>
</svg>
