<svg width="21" height="16" viewBox="0 0 21 16" fill="none" xmlns="http://www.w3.org/2000/svg">
<path d="M18.6875 4.55883L17.4474 6.41902C18.0406 7.60221 18.3311 8.9141 18.2927 10.2371C18.2543 11.5602 17.8882 12.853 17.2274 13.9998H3.36595C2.50703 12.5097 2.15112 10.7826 2.35099 9.07436C2.55086 7.36613 3.29586 5.76778 4.47555 4.51625C5.65524 3.26473 7.20681 2.42665 8.90026 2.12628C10.5937 1.8259 12.3389 2.07921 13.877 2.84865L15.7372 1.60853C13.7666 0.331313 11.4093 -0.211697 9.07847 0.0746426C6.74763 0.360982 4.59189 1.45841 2.98897 3.17463C1.38605 4.89085 0.438184 7.11641 0.311456 9.46134C0.184728 11.8063 0.88722 14.121 2.29584 16H18.2975C19.5242 14.3611 20.2184 12.3852 20.2864 10.3392C20.3543 8.29314 19.7928 6.27554 18.6775 4.55883H18.6875Z" fill="#8E8E8E"/>
<path d="M8.88741 11.4088C9.07318 11.5948 9.29378 11.7423 9.5366 11.843C9.77942 11.9437 10.0397 11.9955 10.3026 11.9955C10.5654 11.9955 10.8257 11.9437 11.0685 11.843C11.3113 11.7423 11.5319 11.5948 11.7177 11.4088L17.3783 2.91797L8.88741 8.57855C8.70144 8.76431 8.55391 8.98491 8.45325 9.22773C8.35259 9.47055 8.30078 9.73083 8.30078 9.99369C8.30078 10.2566 8.35259 10.5168 8.45325 10.7597C8.55391 11.0025 8.70144 11.2231 8.88741 11.4088Z" fill="#8E8E8E"/>
</svg>
