<svg width="10" height="18" viewBox="0 0 10 18" fill="none" xmlns="http://www.w3.org/2000/svg">
<path d="M4.54978 17.4336V15.3641C3.69951 15.1716 2.96571 14.8026 2.34839 14.2572C1.73106 13.7117 1.27769 12.9416 0.988281 11.947L2.76903 11.2251C3.00967 11.9951 3.36678 12.5807 3.84037 12.9818C4.31395 13.3828 4.93545 13.5834 5.70486 13.5834C6.36261 13.5834 6.92026 13.4351 7.3778 13.1387C7.83534 12.8422 8.06379 12.3808 8.06315 11.7545C8.06315 11.193 7.88668 10.748 7.53374 10.4194C7.18079 10.0908 6.36261 9.71769 5.07919 9.29994C3.69951 8.86678 2.75299 8.34956 2.23962 7.74828C1.72625 7.14699 1.46956 6.41288 1.46956 5.54592C1.46956 4.50314 1.80646 3.69298 2.48026 3.11544C3.15406 2.5379 3.8439 2.20903 4.54978 2.12881V0.107422H6.47491V2.12881C7.27705 2.25715 7.93898 2.5501 8.46069 3.00764C8.9824 3.46518 9.36325 4.0225 9.60325 4.67961L7.82251 5.44967C7.62999 4.9363 7.35726 4.55127 7.00432 4.29459C6.65138 4.0379 6.1701 3.90956 5.56047 3.90956C4.85459 3.90956 4.31716 4.06614 3.94817 4.37929C3.57919 4.69245 3.3947 5.08133 3.3947 5.54592C3.3947 6.07534 3.63534 6.49245 4.11662 6.79726C4.59791 7.10207 5.43213 7.42293 6.6193 7.75983C7.72625 8.08068 8.56464 8.5902 9.13448 9.28838C9.70432 9.98657 9.98892 10.7926 9.98828 11.7064C9.98828 12.8454 9.65138 13.7117 8.97759 14.3053C8.30379 14.8989 7.46956 15.2678 6.47491 15.4122V17.4336H4.54978Z" fill="#8E8E8E"/>
</svg>
