<svg width="25" height="25" viewBox="0 0 25 25" fill="none" xmlns="http://www.w3.org/2000/svg">
<path d="M22.6797 12.7598H2.67969" stroke="#1D90F0" stroke-width="2" stroke-linecap="round" stroke-linejoin="round"/>
<path d="M6.12969 5.86977L2.67969 12.7598V18.7598C2.67969 19.2902 2.8904 19.7989 3.26547 20.174C3.64055 20.5491 4.14925 20.7598 4.67969 20.7598H20.6797C21.2101 20.7598 21.7188 20.5491 22.0939 20.174C22.469 19.7989 22.6797 19.2902 22.6797 18.7598V12.7598L19.2297 5.86977C19.0641 5.53655 18.8089 5.25614 18.4926 5.06005C18.1764 4.86395 17.8118 4.75996 17.4397 4.75977H7.91969C7.5476 4.75996 7.18295 4.86395 6.86673 5.06005C6.55051 5.25614 6.29526 5.53655 6.12969 5.86977Z" stroke="#1D90F0" stroke-width="2" stroke-linecap="round" stroke-linejoin="round"/>
<path d="M6.67969 16.7598H6.68969" stroke="#1D90F0" stroke-width="2" stroke-linecap="round" stroke-linejoin="round"/>
<path d="M10.6797 16.7598H10.6897" stroke="#1D90F0" stroke-width="2" stroke-linecap="round" stroke-linejoin="round"/>
</svg>
