<svg width="31" height="27" viewBox="0 0 31 27" fill="none" xmlns="http://www.w3.org/2000/svg">
<path d="M4.04688 0.634766C1.97852 0.634766 0.296875 2.31641 0.296875 4.38477V8.13477C0.296875 10.2031 1.97852 11.8848 4.04688 11.8848H26.5469C28.6152 11.8848 30.2969 10.2031 30.2969 8.13477V4.38477C30.2969 2.31641 28.6152 0.634766 26.5469 0.634766H4.04688ZM20.4531 4.85352C20.8261 4.85352 21.1838 5.00167 21.4475 5.2654C21.7112 5.52912 21.8594 5.88681 21.8594 6.25977C21.8594 6.63273 21.7112 6.99041 21.4475 7.25413C21.1838 7.51786 20.8261 7.66602 20.4531 7.66602C20.0802 7.66602 19.7225 7.51786 19.4588 7.25413C19.195 6.99041 19.0469 6.63273 19.0469 6.25977C19.0469 5.88681 19.195 5.52912 19.4588 5.2654C19.7225 5.00167 20.0802 4.85352 20.4531 4.85352ZM23.2656 6.25977C23.2656 5.88681 23.4138 5.52912 23.6775 5.2654C23.9412 5.00167 24.2989 4.85352 24.6719 4.85352C25.0448 4.85352 25.4025 5.00167 25.6662 5.2654C25.93 5.52912 26.0781 5.88681 26.0781 6.25977C26.0781 6.63273 25.93 6.99041 25.6662 7.25413C25.4025 7.51786 25.0448 7.66602 24.6719 7.66602C24.2989 7.66602 23.9412 7.51786 23.6775 7.25413C23.4138 6.99041 23.2656 6.63273 23.2656 6.25977ZM4.04688 15.6348C1.97852 15.6348 0.296875 17.3164 0.296875 19.3848V23.1348C0.296875 25.2031 1.97852 26.8848 4.04688 26.8848H26.5469C28.6152 26.8848 30.2969 25.2031 30.2969 23.1348V19.3848C30.2969 17.3164 28.6152 15.6348 26.5469 15.6348H4.04688ZM20.4531 19.8535C20.8261 19.8535 21.1838 20.0017 21.4475 20.2654C21.7112 20.5291 21.8594 20.8868 21.8594 21.2598C21.8594 21.6327 21.7112 21.9904 21.4475 22.2541C21.1838 22.5179 20.8261 22.666 20.4531 22.666C20.0802 22.666 19.7225 22.5179 19.4588 22.2541C19.195 21.9904 19.0469 21.6327 19.0469 21.2598C19.0469 20.8868 19.195 20.5291 19.4588 20.2654C19.7225 20.0017 20.0802 19.8535 20.4531 19.8535ZM23.7344 21.2598C23.7344 20.8868 23.8825 20.5291 24.1463 20.2654C24.41 20.0017 24.7677 19.8535 25.1406 19.8535C25.5136 19.8535 25.8713 20.0017 26.135 20.2654C26.3987 20.5291 26.5469 20.8868 26.5469 21.2598C26.5469 21.6327 26.3987 21.9904 26.135 22.2541C25.8713 22.5179 25.5136 22.666 25.1406 22.666C24.7677 22.666 24.41 22.5179 24.1463 22.2541C23.8825 21.9904 23.7344 21.6327 23.7344 21.2598Z" fill="#1D90F0"/>
</svg>
