<svg width="16" height="17" viewBox="0 0 16 17" fill="none" xmlns="http://www.w3.org/2000/svg">
<path d="M7.79688 0C3.65312 0 0.296875 1.67812 0.296875 3.75C0.296875 5.82188 3.65312 7.5 7.79688 7.5C11.9406 7.5 15.2969 5.82188 15.2969 3.75C15.2969 1.67812 11.9406 0 7.79688 0ZM0.296875 5.625V8.4375C0.296875 10.5094 3.65312 12.1875 7.79688 12.1875C11.9406 12.1875 15.2969 10.5094 15.2969 8.4375V5.625C15.2969 7.69688 11.9406 9.375 7.79688 9.375C3.65312 9.375 0.296875 7.69688 0.296875 5.625ZM0.296875 10.3125V13.125C0.296875 15.1969 3.65312 16.875 7.79688 16.875C11.9406 16.875 15.2969 15.1969 15.2969 13.125V10.3125C15.2969 12.3844 11.9406 14.0625 7.79688 14.0625C3.65312 14.0625 0.296875 12.3844 0.296875 10.3125Z" fill="#8E8E8E"/>
</svg>
